<svg width="24" height="24" fill="none" xmlns="http://www.w3.org/2000/svg"><path fill-rule="evenodd" clip-rule="evenodd" d="M9.754 3a6.739 6.739 0 0 1 6.063 3.779 6.746 6.746 0 0 1-.738 7.11l5.674 5.67a.844.844 0 0 1-1.193 1.194l-5.674-5.677a6.742 6.742 0 0 1-7.988.216A6.751 6.751 0 0 1 9.754 3zm0 11.816a5.066 5.066 0 0 0 3.58-8.645 5.06 5.06 0 0 0-8.64 3.58 5.069 5.069 0 0 0 5.06 5.06v.005z" fill="#F58823"/><mask id="a" maskUnits="userSpaceOnUse" x="3" y="3" width="18" height="18"><path fill-rule="evenodd" clip-rule="evenodd" d="M9.754 3a6.739 6.739 0 0 1 6.063 3.779 6.746 6.746 0 0 1-.738 7.11l5.674 5.67a.844.844 0 0 1-1.193 1.194l-5.674-5.677a6.742 6.742 0 0 1-7.988.216A6.751 6.751 0 0 1 9.754 3zm0 11.816a5.066 5.066 0 0 0 3.58-8.645 5.06 5.06 0 0 0-8.64 3.58 5.069 5.069 0 0 0 5.06 5.06v.005z" fill="#fff"/></mask><g mask="url(#a)"><path fill="#F58823" d="M0 0h24v24H0z"/></g></svg>