<?xml version="1.0" encoding="UTF-8"?><!DOCTYPE svg PUBLIC "-//W3C//DTD SVG 1.1//EN" "http://www.w3.org/Graphics/SVG/1.1/DTD/svg11.dtd"><svg xmlns="http://www.w3.org/2000/svg" xmlns:xlink="http://www.w3.org/1999/xlink"><symbol id="ico-mono-404" viewBox="0 0 606 218">
    <path d="M195.001 169.5h-34.2v44.1h-47.4v-44.1H.301v-32.7l99-133.2h51l-91.8 126.3h56.4V90.6h45.9v39.3h34.2v39.6z"/>
    <path d="M299.537 217.2c-17.4 0-32.9-4.3-46.5-12.9-13.6-8.6-24.3-21-32.1-37.2-7.6-16.4-11.4-35.9-11.4-58.5s3.8-42 11.4-58.2c7.8-16.4 18.5-28.9 32.1-37.5 13.6-8.6 29.1-12.9 46.5-12.9s32.9 4.3 46.5 12.9c13.6 8.6 24.2 21.1 31.8 37.5 7.8 16.2 11.7 35.6 11.7 58.2s-3.9 42.1-11.7 58.5c-7.6 16.2-18.2 28.6-31.8 37.2-13.6 8.6-29.1 12.9-46.5 12.9zm0-41.1c12.8 0 22.8-5.5 30-16.5 7.4-11 11.1-28 11.1-51s-3.7-40-11.1-51c-7.2-11-17.2-16.5-30-16.5-12.6 0-22.6 5.5-30 16.5-7.2 11-10.8 28-10.8 51s3.6 40 10.8 51c7.4 11 17.4 16.5 30 16.5z"/>
    <path d="M605.45 169.5h-34.2v44.1h-47.4v-44.1h-113.1v-32.7l99-133.2h51l-91.8 126.3h56.4V90.6h45.9v39.3h34.2v39.6z"/>
</symbol><symbol id="ico-mono-arrow-crumb-down" viewBox="0 0 10 6">
    <path fill-rule="evenodd" clip-rule="evenodd" d="M4.98 6L0 1.1 1.127 0 5 3.778 8.873 0 10 1.1 5.02 6l-.021-.02L4.98 6z"/>
</symbol><symbol id="ico-mono-arrow-crumb-right" viewBox="0 0 6 10">
    <path fill-rule="evenodd" clip-rule="evenodd" d="M6 5.044L1.1 9.598 0 8.568l3.778-3.541L0 1.484 1.1.453 6 5.007l-.02.02.02.017z"/>
</symbol><symbol id="ico-mono-arrow-down-big" viewBox="0 0 18 68">
    <path d="M8 1.822a1 1 0 1 1 2 0v64a1 1 0 0 1-2 0v-64z"/>
    <path fill-rule="evenodd" clip-rule="evenodd" d="M.293 57.114a1 1 0 0 1 1.414 0L9 64.407l7.293-7.292a1 1 0 0 1 1.414 1.414L9 67.236.293 58.529a1 1 0 0 1 0-1.415z"/>
</symbol><symbol id="ico-mono-arrow-top" viewBox="0 0 14 20">
    <path fill-rule="evenodd" clip-rule="evenodd" d="M7.028.317l6.731 7.854a1 1 0 0 1-1.518 1.301L6.972 3.326 1.735 9a1 1 0 1 1-1.47-1.357L7.028.317z"/>
    <path fill-rule="evenodd" clip-rule="evenodd" d="M6 18.322v-16.5h2v16.5a1 1 0 0 1-2 0z"/>
</symbol><symbol id="ico-mono-btn-arrow-next" viewBox="0 0 20 10">
    <path clip-rule="evenodd" d="M15.1 10L20 5.02l-.02-.019.02-.021L15.1 0 14 1.127 16.802 4H0v2h16.803L14 8.873 15.1 10z"/>
</symbol><symbol id="ico-mono-btn-arrow-prev" viewBox="0 0 20 10">
    <path clip-rule="evenodd" d="M4.9 0L0 4.98l.02.019L0 5.02 4.9 10 6 8.873 3.198 6H20V4H3.197L6 1.127 4.9 0z"/>
</symbol><symbol id="ico-mono-checkmark" viewBox="0 0 10 8">
    <path fill-rule="evenodd" clip-rule="evenodd" d="M9.891 1.557L4.008 7.88A.35.35 0 0 1 3.741 8a.35.35 0 0 1-.267-.119l-.124-.127-.129-.139-.555-.597L.111 4.25a.428.428 0 0 1 0-.575l.8-.863a.35.35 0 0 1 .267-.12.35.35 0 0 1 .267.12l2.29 2.478L8.554.118A.35.35 0 0 1 8.82 0a.35.35 0 0 1 .268.118l.799.863c.15.169.15.406.004.576z"/>
</symbol><symbol id="ico-mono-doc-pdf" viewBox="0 0 40 50">
    <path fill-rule="evenodd" clip-rule="evenodd" d="M29.172 2H2v46h36V10.828L29.172 2zM30 0H0v50h40V10L30 0z"/>
    <path fill-rule="evenodd" clip-rule="evenodd" d="M28 0h2v10h10v2H28V0z"/>
    <path d="M12.86 22c.62 0 1.157.103 1.61.31.46.207.813.5 1.06.88.247.38.37.83.37 1.35 0 .513-.123.963-.37 1.35-.247.38-.6.673-1.06.88-.453.2-.99.3-1.61.3h-1.41V29H9.83v-7h3.03zm-.09 3.75c.487 0 .857-.103 1.11-.31.253-.213.38-.513.38-.9 0-.393-.127-.693-.38-.9-.253-.213-.623-.32-1.11-.32h-1.32v2.43h1.32z"/>
    <path d="M17.056 22h3.18c.76 0 1.43.147 2.01.44.587.287 1.04.693 1.36 1.22.327.527.49 1.14.49 1.84 0 .7-.163 1.313-.49 1.84a3.25 3.25 0 0 1-1.36 1.23c-.58.287-1.25.43-2.01.43h-3.18v-7zm3.1 5.67c.7 0 1.257-.193 1.67-.58.42-.393.63-.923.63-1.59s-.21-1.193-.63-1.58c-.413-.393-.97-.59-1.67-.59h-1.48v4.34h1.48z"/>
    <path d="M26.938 23.3v1.85h3.24v1.3h-3.24V29h-1.62v-7h5.29v1.3h-3.67z"/>
</symbol><symbol id="ico-mono-email" viewBox="0 0 49 35">
    <g fill-rule="evenodd">
        <path d="M44.49 0c2.338 0 4.13 1.781 4.13 3.813v1.272l-5.402 3.813-19.067 13.029L5.402 8.897v26.059h-1.27C1.791 34.956 0 33.175 0 31.143V3.813C0 1.783 1.793.001 4.131 0l20.02 14.936L44.49 0z" fill-rule="nonzero"/>
        <path d="M48.62 5.085v26.058c-.092 2.737-1.316 3.765-5.402 3.813V8.898l5.403-3.813z" fill-rule="nonzero"/>
        <path d="M3.813 0h40.765v5.461H3.813z"/>
        <path d="M4.767 29.554h38.451v5.402H4.767z"/>
    </g>
</symbol><symbol id="ico-mono-exclamation" viewBox="0 0 3 10">
    <path d="M2.438 6.158h-1.43L.709.434h2.027l-.299 5.724zM.685 8.162c0-.328.087-.576.263-.744.176-.168.432-.252.768-.252.324 0 .574.086.75.258.18.172.27.418.27.738 0 .309-.09.553-.27.733-.18.175-.43.263-.75.263-.328 0-.582-.086-.762-.258-.18-.175-.27-.421-.27-.738z"/>
</symbol><symbol id="ico-mono-mail" viewBox="0 0 20 15">
    <path fill-rule="evenodd" clip-rule="evenodd" d="M2 .822h16a2 2 0 0 1 2 2v10a2 2 0 0 1-2 2H2a2 2 0 0 1-2-2v-10a2 2 0 0 1 2-2zm0 2v10h16v-10H2zm2.196 2.191a1 1 0 0 0 .124 1.409l4.42 3.705a2 2 0 0 0 2.594-.021l4.263-3.695a1 1 0 0 0-1.31-1.511l-4.263 3.695-4.42-3.706a1 1 0 0 0-1.408.124z"/>
</symbol><symbol id="ico-mono-out-link" viewBox="0 0 16 19">
    <path fill-rule="evenodd" clip-rule="evenodd" d="M11.589 7.257l-7.154 7.244-1.409-1.389L10.18 5.87l1.409 1.388z"/>
    <path fill-rule="evenodd" clip-rule="evenodd" d="M3.76 5.57l8.11.005.01 8.002-1.978.003-.008-6.028L3.76 7.55l.002-1.979z"/>
</symbol><symbol id="ico-mono-phone-outline" viewBox="0 0 20 19">
    <path fill-rule="evenodd" clip-rule="evenodd" d="M12.9 18.747c.45.16.926.242 1.405.241a4.238 4.238 0 0 0 3-1.254l1.033-1.045a2.86 2.86 0 0 0-.731-4.557l-2.97-1.528a2.041 2.041 0 0 0-2.27.305l-.348.318c-.347.313-.85.38-1.268.171a5.408 5.408 0 0 1-2.343-2.342 1.115 1.115 0 0 1 .17-1.266l.314-.346a2.001 2.001 0 0 0 .306-2.268L7.67 2.207a2.868 2.868 0 0 0-4.278-.972l-.903.69a4.212 4.212 0 0 0-1.451 4.642A19.316 19.316 0 0 0 12.9 18.747zm4.135-3.347L16 16.444a2.404 2.404 0 0 1-1.7.711c-.268 0-.535-.046-.788-.136A17.48 17.48 0 0 1 2.78 5.997a2.377 2.377 0 0 1 .822-2.616l.902-.688a1.034 1.034 0 0 1 1.537.355l1.527 2.967a.168.168 0 0 1-.026.19l-.321.353c-.83.9-1.01 2.237-.443 3.338a7.24 7.24 0 0 0 3.137 3.134 2.974 2.974 0 0 0 3.331-.44l.359-.329c.047-.042.138-.054.214-.016l2.949 1.517a1.029 1.029 0 0 1 .267 1.638z"/>
</symbol><symbol id="ico-mono-phone" viewBox="0 0 12 12">
    <path fill-rule="evenodd" clip-rule="evenodd" d="M8.505 11.333c-.279 0-.556-.047-.818-.14A11.238 11.238 0 0 1 .786 4.107a2.45 2.45 0 0 1 .844-2.702l.525-.4a1.668 1.668 0 0 1 2.49.565l.888 1.727c.223.434.152.96-.178 1.32l-.182.2a.649.649 0 0 0-.1.738c.301.585.778 1.062 1.364 1.362a.66.66 0 0 0 .738-.1l.202-.184a1.188 1.188 0 0 1 1.32-.178l1.729.889a1.664 1.664 0 0 1 .425 2.652l-.601.607a2.465 2.465 0 0 1-1.745.73z"/>
</symbol><symbol id="ico-mono-scrolltop" viewBox="0 0 12 18">
    <path fill-rule="evenodd" clip-rule="evenodd" d="M6.028.829l5.731 6.687a1 1 0 0 1-1.518 1.301l-4.269-4.98-4.237 4.591a1 1 0 1 1-1.47-1.356L6.028.829z"/>
    <path fill-rule="evenodd" clip-rule="evenodd" d="M5 16.083V2.333h2v13.75a1 1 0 1 1-2 0z"/>
</symbol><symbol id="ico-mono-search" viewBox="0 0 18 18">
    <path fill-rule="evenodd" clip-rule="evenodd" d="M6.754 0a6.739 6.739 0 0 1 6.063 3.779 6.746 6.746 0 0 1-.738 7.11l5.674 5.67a.844.844 0 0 1-1.193 1.194l-5.674-5.677a6.742 6.742 0 0 1-7.988.216A6.751 6.751 0 0 1 6.754 0zm0 11.816a5.066 5.066 0 0 0 3.58-8.645 5.06 5.06 0 0 0-8.64 3.58 5.069 5.069 0 0 0 5.06 5.06v.005z"/>
</symbol><symbol id="ico-mono-swiper-arrow-prev" viewBox="0 0 11 18">
    <path d="M10.172 16.186l-1.189 1.169L.773 9 8.984.62l1.19 1.167-7.064 7.21 7.063 7.188z"/>
</symbol><symbol id="ico-mono-swiper-arrow-next" viewBox="0 0 11 18">
    <path d="M.828 1.814L2.017.646l8.21 8.353-8.21 8.38-1.19-1.167 7.064-7.21L.828 1.813z"/>
</symbol></svg>